<?xml version="1.0" standalone="no"?>
<!DOCTYPE svg PUBLIC "-//W3C//DTD SVG 20010904//EN"
 "http://www.w3.org/TR/2001/REC-SVG-20010904/DTD/svg10.dtd">
<svg version="1.0" xmlns="http://www.w3.org/2000/svg"
 width="26px" height="26px" viewBox="0 0 512.000000 512.000000"
 preserveAspectRatio="xMidYMid meet">

<g transform="translate(0.000000,512.000000) scale(0.100000,-0.100000)"
fill="#8f832e" stroke="none">
<path d="M854 5105 c-414 -75 -723 -364 -827 -772 l-22 -88 0 -1685 0 -1685
22 -88 c98 -381 379 -662 760 -760 l88 -22 1685 0 1685 0 88 22 c381 98 662
379 760 760 l22 88 0 1685 0 1685 -22 88 c-96 375 -368 652 -742 755 l-96 27
-1665 2 c-1323 1 -1679 -1 -1736 -12z m3064 -806 c242 -84 368 -351 279 -589
-27 -73 -55 -116 -111 -172 -94 -92 -214 -135 -352 -126 -95 7 -171 34 -244
90 l-53 40 -724 -358 c-398 -198 -757 -374 -798 -393 l-74 -33 -3 -87 c-2 -50
1 -91 7 -97 5 -6 375 -225 822 -488 l812 -476 48 30 c157 100 382 91 523 -21
67 -53 124 -126 152 -196 19 -49 23 -77 23 -174 0 -113 -1 -116 -37 -190 -185
-374 -715 -342 -848 52 -22 63 -31 189 -17 234 5 17 -101 83 -814 502 l-821
482 -32 -24 c-17 -13 -63 -39 -101 -57 -59 -27 -84 -33 -162 -36 -145 -7 -249
29 -347 119 -104 95 -156 211 -156 346 1 135 37 234 120 326 175 195 487 212
675 37 l30 -28 795 392 795 392 6 90 c10 139 48 223 141 311 128 121 304 159
466 102z"/>
</g>
</svg>
